<?xml version="1.0" standalone="no"?>
<!DOCTYPE svg PUBLIC "-//W3C//DTD SVG 20010904//EN"
 "http://www.w3.org/TR/2001/REC-SVG-20010904/DTD/svg10.dtd">
<svg version="1.0" xmlns="http://www.w3.org/2000/svg"
 width="512.000000pt" height="512.000000pt" viewBox="0 0 512.000000 512.000000"
 preserveAspectRatio="xMidYMid meet">
<metadata>
Created by potrace 1.14, written by Peter Selinger 2001-2017
</metadata>
<g transform="translate(0.000000,512.000000) scale(0.100000,-0.100000)"
fill="#000000" stroke="none">
<path d="M3257 5083 c-1 0 -69 -4 -152 -7 -82 -3 -159 -8 -170 -10 -12 -2 -51
-7 -87 -10 -37 -4 -77 -9 -89 -11 -13 -3 -41 -7 -64 -10 -22 -4 -69 -13 -105
-21 -36 -9 -75 -17 -86 -20 -38 -7 -226 -71 -304 -102 -199 -80 -343 -159
-551 -304 -173 -119 -159 -107 -349 -298 -121 -121 -187 -196 -245 -280 -177
-255 -239 -373 -325 -610 -29 -80 -54 -154 -57 -165 -3 -11 -8 -36 -13 -55 -4
-19 -21 -84 -36 -145 -27 -108 -28 -117 -31 -453 l-4 -342 28 -11 c20 -7 327
-9 1023 -5 1442 8 2096 6 2118 -8 21 -12 -7 -159 -52 -279 -84 -224 -287 -532
-423 -643 -26 -21 -73 -63 -104 -91 -97 -92 -112 -104 -204 -165 -95 -64 -287
-163 -394 -204 -52 -20 -236 -72 -316 -89 -28 -7 -81 -13 -152 -20 -34 -3 -72
-8 -85 -11 -84 -17 -178 -21 -444 -22 -166 0 -306 3 -311 7 -26 17 -29 68 -29
499 l1 453 -22 5 c-12 3 -160 7 -328 8 l-305 2 0 -815 0 -816 697 2 c611 1
826 5 923 17 249 30 550 117 788 227 35 16 66 29 69 29 7 0 181 101 263 153
206 131 455 350 575 507 27 36 52 67 55 70 15 13 103 133 153 210 84 129 237
454 263 559 2 9 19 78 38 153 19 76 37 159 41 185 4 27 10 59 12 73 8 38 12
660 4 661 -3 1 -718 3 -1589 4 -870 1 -1585 5 -1589 9 -15 14 45 236 97 360
65 154 233 412 355 545 49 54 244 210 345 278 41 28 149 87 239 132 144 71
195 92 261 106 8 2 85 20 170 39 92 21 198 37 260 41 58 4 116 9 130 11 25 5
219 11 515 16 l160 3 1 -460 c1 -253 2 -464 3 -468 0 -4 141 -7 312 -5 298 3
311 4 322 23 15 25 17 132 20 913 1 336 -2 612 -6 612 -5 0 -6 4 -2 9 8 13
-13 24 -55 29 -33 3 -1160 9 -1163 5z"/>
<path d="M3015 3885 c-184 -38 -315 -93 -485 -202 -127 -83 -280 -218 -338
-300 l-22 -32 22 -7 c13 -4 245 -8 516 -8 465 -1 495 0 523 17 l29 19 1 136
c1 332 0 345 -25 371 -32 32 -87 34 -221 6z"/>
<path d="M1812 1774 c-21 -15 -22 -19 -21 -301 l0 -285 37 5 c196 31 236 39
337 64 91 22 265 96 273 115 2 4 8 8 14 8 25 0 222 143 300 218 91 88 142 167
118 182 -7 5 -243 8 -525 9 -440 0 -515 -2 -533 -15z"/>
</g>
</svg>
